<svg xmlns="http://www.w3.org/2000/svg" width="500" height="155" viewBox="0 0 500 155" fill="none"><path opacity="0.2" d="M500.001 65.3C493.721 66.02 487.321 65.71 481.131 64.37C468.901 66.57 456.141 65.77 444.281 62.05C439.801 64.1 435.321 66.15 430.831 68.21C424.731 60.76 426.621 46.64 417.421 43.82C415.451 43.22 413.251 43.33 411.451 42.34C405.671 39.18 408.091 27.84 401.721 26.13C400.071 25.69 398.301 26.15 396.611 25.88C393.241 25.34 390.931 21.92 390.531 18.54C390.131 15.16 390.261 11.42 390.261 7.79C392.151 6.49 396.031 7.1 396.031 5.6C396.031 4.1 392.011 5.08 389.941 4.09C388.691 3.5 390.731 1.42 388.721 1C386.491 1.56 388.551 3.43 387.641 4.16C386.461 5.12 381.421 4.16 381.351 5.67C381.281 7.18 387.941 6.3 387.921 8C387.851 12.93 387.951 20 384.501 24.85C379.801 28.83 375.101 32.81 370.401 36.78C367.621 39.13 364.831 41.49 362.221 44.04C348.651 57.28 340.211 75.66 339.021 94.58C326.531 92.95 313.491 91.38 301.601 95.54C290.981 99.26 282.471 107.15 273.721 114.22C262.511 123.29 250.441 131.3 237.731 138.11C219.511 147.88 198.601 155.3 178.381 150.98C169.541 149.09 161.391 144.99 152.761 142.41C145.391 140.21 138.431 140.32 131.051 142.28C124.291 144.07 120.431 148.82 114.921 152.76C114.241 153.25 113.511 153.71 112.681 153.82C111.811 153.93 110.941 153.64 110.111 153.34C102.101 150.5 94.1609 147.47 86.3009 144.24C86.9309 144.27 87.2409 143.38 86.9309 142.83C86.6209 142.28 86.0009 142.01 85.4309 141.76C83.1009 140.7 81.0009 139.16 79.3009 137.24C75.6309 133.12 72.5009 125.12 65.5909 126.58C64.3509 126.84 63.1909 127.42 61.9709 127.77C60.2509 128.26 58.4309 128.3 56.6409 128.41C51.5309 128.73 46.4609 129.71 41.5909 131.32C39.6009 130.98 37.7209 132.23 36.0909 133.42C30.6409 137.39 25.1909 141.37 19.7309 145.34C19.2509 145.69 18.7309 146.06 18.1409 146.11C16.9509 146.22 16.0609 145.11 15.2309 144.25C12.6509 141.57 5.26086 138.9 1.63086 138.05" stroke="#1D1D1D" stroke-width="1.3" stroke-linecap="round" stroke-linejoin="round"></path></svg>