<svg width="196" height="57" viewBox="0 0 196 57" fill="none" xmlns="http://www.w3.org/2000/svg">
<path d="M22.458 34.615C22.458 37.345 21.691 39.464 20.157 40.972C18.649 42.454 16.582 43.195 13.956 43.195C12.318 43.195 10.823 42.857 9.471 42.181C8.119 41.479 6.936 40.517 5.922 39.295L8.106 35.941C9.016 36.903 9.978 37.644 10.992 38.164C12.006 38.684 12.981 38.944 13.917 38.944C15.139 38.944 16.088 38.567 16.764 37.813C17.466 37.033 17.817 35.928 17.817 34.498V19.639H8.379V15.7H22.458V34.615ZM36.1479 43.39C34.5619 43.39 33.0799 43.013 31.7019 42.259C30.3499 41.505 29.2579 40.426 28.4259 39.022C27.5939 37.618 27.1779 35.941 27.1779 33.991C27.1779 32.119 27.5289 30.481 28.2309 29.077C28.9589 27.673 29.9729 26.581 31.2729 25.801C32.5989 25.021 34.1719 24.631 35.9919 24.631C37.0839 24.631 38.0719 24.826 38.9559 25.216C39.8659 25.58 40.6199 26.035 41.2179 26.581C41.8419 27.101 42.2579 27.608 42.4659 28.102L42.5439 25.099H46.5609V43H42.5829L42.5049 39.841C42.2449 40.413 41.8029 40.972 41.1789 41.518C40.5809 42.064 39.8529 42.519 38.9949 42.883C38.1369 43.221 37.1879 43.39 36.1479 43.39ZM36.8499 39.88C37.8119 39.88 38.6829 39.659 39.4629 39.217C40.2689 38.749 40.9059 38.099 41.3739 37.267C41.8679 36.435 42.1149 35.447 42.1149 34.303V34.03C42.1149 32.86 41.8679 31.846 41.3739 30.988C40.9059 30.104 40.2689 29.428 39.4629 28.96C38.6829 28.466 37.8119 28.219 36.8499 28.219C35.1079 28.219 33.7949 28.778 32.9109 29.896C32.0529 31.014 31.6239 32.392 31.6239 34.03C31.6239 35.694 32.0529 37.085 32.9109 38.203C33.7949 39.321 35.1079 39.88 36.8499 39.88ZM52.9661 14.062H57.4511V43H52.9661V14.062ZM71.644 43.39C70.058 43.39 68.576 43.013 67.198 42.259C65.846 41.505 64.754 40.426 63.922 39.022C63.09 37.618 62.674 35.941 62.674 33.991C62.674 32.119 63.025 30.481 63.727 29.077C64.455 27.673 65.469 26.581 66.769 25.801C68.095 25.021 69.668 24.631 71.488 24.631C72.58 24.631 73.568 24.826 74.452 25.216C75.362 25.58 76.116 26.035 76.714 26.581C77.338 27.101 77.754 27.608 77.962 28.102L78.04 25.099H82.057V43H78.079L78.001 39.841C77.741 40.413 77.299 40.972 76.675 41.518C76.077 42.064 75.349 42.519 74.491 42.883C73.633 43.221 72.684 43.39 71.644 43.39ZM72.346 39.88C73.308 39.88 74.179 39.659 74.959 39.217C75.765 38.749 76.402 38.099 76.87 37.267C77.364 36.435 77.611 35.447 77.611 34.303V34.03C77.611 32.86 77.364 31.846 76.87 30.988C76.402 30.104 75.765 29.428 74.959 28.96C74.179 28.466 73.308 28.219 72.346 28.219C70.604 28.219 69.291 28.778 68.407 29.896C67.549 31.014 67.12 32.392 67.12 34.03C67.12 35.694 67.549 37.085 68.407 38.203C69.291 39.321 70.604 39.88 72.346 39.88ZM88.5401 15.7H93.1421V27.673H107.611V15.7H112.213V43H107.611V31.573H93.1421V43H88.5401V15.7ZM126.917 43.39C125.045 43.39 123.394 42.974 121.964 42.142C120.56 41.31 119.468 40.179 118.688 38.749C117.908 37.319 117.518 35.733 117.518 33.991C117.518 32.275 117.895 30.715 118.649 29.311C119.429 27.881 120.521 26.75 121.925 25.918C123.329 25.06 124.993 24.631 126.917 24.631C128.841 24.631 130.505 25.06 131.909 25.918C133.313 26.75 134.392 27.881 135.146 29.311C135.9 30.715 136.277 32.275 136.277 33.991C136.277 35.733 135.887 37.319 135.107 38.749C134.353 40.179 133.274 41.31 131.87 42.142C130.466 42.974 128.815 43.39 126.917 43.39ZM127.034 39.958C128.594 39.958 129.79 39.386 130.622 38.242C131.48 37.098 131.909 35.707 131.909 34.069C131.909 32.951 131.701 31.95 131.285 31.066C130.869 30.156 130.271 29.428 129.491 28.882C128.737 28.336 127.84 28.063 126.8 28.063C125.786 28.063 124.915 28.336 124.187 28.882C123.459 29.428 122.887 30.156 122.471 31.066C122.081 31.95 121.886 32.951 121.886 34.069C121.886 35.161 122.107 36.162 122.549 37.072C122.991 37.956 123.589 38.658 124.343 39.178C125.123 39.698 126.02 39.958 127.034 39.958ZM146.586 36.448C146.586 37.566 146.781 38.333 147.171 38.749C147.561 39.139 148.107 39.334 148.809 39.334C149.277 39.334 149.758 39.256 150.252 39.1C150.772 38.944 151.331 38.71 151.929 38.398L153.06 41.635C152.254 42.129 151.422 42.519 150.564 42.805C149.706 43.065 148.835 43.195 147.951 43.195C146.911 43.195 145.949 43 145.065 42.61C144.181 42.194 143.466 41.544 142.92 40.66C142.4 39.776 142.14 38.632 142.14 37.228V17.377H146.586V36.448ZM139.215 23.032H152.709V26.23H139.215V23.032ZM165.12 43.39C162.884 43.39 161.064 42.961 159.66 42.103C158.256 41.219 157.229 40.062 156.579 38.632C155.929 37.202 155.604 35.681 155.604 34.069C155.604 32.119 155.994 30.442 156.774 29.038C157.58 27.634 158.685 26.555 160.089 25.801C161.493 25.021 163.079 24.631 164.847 24.631C167.681 24.631 169.748 25.424 171.048 27.01C172.348 28.57 172.998 30.676 172.998 33.328C172.998 34.03 172.959 34.758 172.881 35.512H160.011C160.297 37.124 160.869 38.281 161.727 38.983C162.611 39.659 163.781 39.997 165.237 39.997C166.641 39.997 167.746 39.867 168.552 39.607C169.358 39.347 170.021 39.087 170.541 38.827L171.828 41.83C171.308 42.168 170.502 42.519 169.41 42.883C168.318 43.221 166.888 43.39 165.12 43.39ZM160.011 32.587H168.903C168.929 30.897 168.552 29.74 167.772 29.116C166.992 28.492 165.978 28.18 164.73 28.18C163.43 28.18 162.364 28.531 161.532 29.233C160.726 29.909 160.219 31.027 160.011 32.587ZM178.155 14.062H182.64V43H178.155V14.062Z" fill="white"/>
<path d="M28.9785 44C27.2654 49.7589 21.4284 54 14.4893 54C7.55016 54 1.71314 49.7589 0 44H4.28125C5.84615 47.372 9.61109 50 14.4893 50C19.3674 50 23.1324 47.372 24.6973 44H28.9785Z" fill="white"/>
</svg>
