<svg width="186" height="57" viewBox="0 0 186 57" fill="none" xmlns="http://www.w3.org/2000/svg">
<path d="M22.1519 34.615C22.1519 37.345 21.3849 39.464 19.8509 40.972C18.3429 42.454 16.2759 43.195 13.6499 43.195C12.0119 43.195 10.5169 42.857 9.16488 42.181C7.81288 41.479 6.62988 40.517 5.61588 39.295L7.79988 35.941C8.70988 36.903 9.67188 37.644 10.6859 38.164C11.6999 38.684 12.6749 38.944 13.6109 38.944C14.8329 38.944 15.7819 38.567 16.4579 37.813C17.1599 37.033 17.5109 35.928 17.5109 34.498V19.639H8.07288V15.7H22.1519V34.615ZM35.8418 43.39C34.2558 43.39 32.7738 43.013 31.3958 42.259C30.0438 41.505 28.9518 40.426 28.1198 39.022C27.2878 37.618 26.8718 35.941 26.8718 33.991C26.8718 32.119 27.2228 30.481 27.9248 29.077C28.6528 27.673 29.6668 26.581 30.9668 25.801C32.2928 25.021 33.8658 24.631 35.6858 24.631C36.7778 24.631 37.7658 24.826 38.6498 25.216C39.5598 25.58 40.3138 26.035 40.9118 26.581C41.5358 27.101 41.9518 27.608 42.1598 28.102L42.2378 25.099H46.2548V43H42.2768L42.1988 39.841C41.9388 40.413 41.4968 40.972 40.8728 41.518C40.2748 42.064 39.5468 42.519 38.6888 42.883C37.8308 43.221 36.8818 43.39 35.8418 43.39ZM36.5438 39.88C37.5058 39.88 38.3768 39.659 39.1568 39.217C39.9628 38.749 40.5998 38.099 41.0678 37.267C41.5618 36.435 41.8088 35.447 41.8088 34.303V34.03C41.8088 32.86 41.5618 31.846 41.0678 30.988C40.5998 30.104 39.9628 29.428 39.1568 28.96C38.3768 28.466 37.5058 28.219 36.5438 28.219C34.8018 28.219 33.4888 28.778 32.6048 29.896C31.7468 31.014 31.3178 32.392 31.3178 34.03C31.3178 35.694 31.7468 37.085 32.6048 38.203C33.4888 39.321 34.8018 39.88 36.5438 39.88ZM52.6599 14.062H57.1449V43H52.6599V14.062ZM71.3379 43.39C69.7519 43.39 68.2699 43.013 66.8919 42.259C65.5399 41.505 64.4479 40.426 63.6159 39.022C62.7839 37.618 62.3679 35.941 62.3679 33.991C62.3679 32.119 62.7189 30.481 63.4209 29.077C64.1489 27.673 65.1629 26.581 66.4629 25.801C67.7889 25.021 69.3619 24.631 71.1819 24.631C72.2739 24.631 73.2619 24.826 74.1459 25.216C75.0559 25.58 75.8099 26.035 76.4079 26.581C77.0319 27.101 77.4479 27.608 77.6559 28.102L77.7339 25.099H81.7509V43H77.7729L77.6949 39.841C77.4349 40.413 76.9929 40.972 76.3689 41.518C75.7709 42.064 75.0429 42.519 74.1849 42.883C73.3269 43.221 72.3779 43.39 71.3379 43.39ZM72.0399 39.88C73.0019 39.88 73.8729 39.659 74.6529 39.217C75.4589 38.749 76.0959 38.099 76.5639 37.267C77.0579 36.435 77.3049 35.447 77.3049 34.303V34.03C77.3049 32.86 77.0579 31.846 76.5639 30.988C76.0959 30.104 75.4589 29.428 74.6529 28.96C73.8729 28.466 73.0019 28.219 72.0399 28.219C70.2979 28.219 68.9849 28.778 68.1009 29.896C67.2429 31.014 66.8139 32.392 66.8139 34.03C66.8139 35.694 67.2429 37.085 68.1009 38.203C68.9849 39.321 70.2979 39.88 72.0399 39.88ZM88.234 15.7H92.836V27.673H107.305V15.7H111.907V43H107.305V31.573H92.836V43H88.234V15.7ZM126.611 43.39C124.739 43.39 123.088 42.974 121.658 42.142C120.254 41.31 119.162 40.179 118.382 38.749C117.602 37.319 117.212 35.733 117.212 33.991C117.212 32.275 117.589 30.715 118.343 29.311C119.123 27.881 120.215 26.75 121.619 25.918C123.023 25.06 124.687 24.631 126.611 24.631C128.535 24.631 130.199 25.06 131.603 25.918C133.007 26.75 134.086 27.881 134.84 29.311C135.594 30.715 135.971 32.275 135.971 33.991C135.971 35.733 135.581 37.319 134.801 38.749C134.047 40.179 132.968 41.31 131.564 42.142C130.16 42.974 128.509 43.39 126.611 43.39ZM126.728 39.958C128.288 39.958 129.484 39.386 130.316 38.242C131.174 37.098 131.603 35.707 131.603 34.069C131.603 32.951 131.395 31.95 130.979 31.066C130.563 30.156 129.965 29.428 129.185 28.882C128.431 28.336 127.534 28.063 126.494 28.063C125.48 28.063 124.609 28.336 123.881 28.882C123.153 29.428 122.581 30.156 122.165 31.066C121.775 31.95 121.58 32.951 121.58 34.069C121.58 35.161 121.801 36.162 122.243 37.072C122.685 37.956 123.283 38.658 124.037 39.178C124.817 39.698 125.714 39.958 126.728 39.958ZM146.28 36.448C146.28 37.566 146.475 38.333 146.865 38.749C147.255 39.139 147.801 39.334 148.503 39.334C148.971 39.334 149.452 39.256 149.946 39.1C150.466 38.944 151.025 38.71 151.623 38.398L152.754 41.635C151.948 42.129 151.116 42.519 150.258 42.805C149.4 43.065 148.529 43.195 147.645 43.195C146.605 43.195 145.643 43 144.759 42.61C143.875 42.194 143.16 41.544 142.614 40.66C142.094 39.776 141.834 38.632 141.834 37.228V17.377H146.28V36.448ZM138.909 23.032H152.403V26.23H138.909V23.032ZM164.814 43.39C162.578 43.39 160.758 42.961 159.354 42.103C157.95 41.219 156.923 40.062 156.273 38.632C155.623 37.202 155.298 35.681 155.298 34.069C155.298 32.119 155.688 30.442 156.468 29.038C157.274 27.634 158.379 26.555 159.783 25.801C161.187 25.021 162.773 24.631 164.541 24.631C167.375 24.631 169.442 25.424 170.742 27.01C172.042 28.57 172.692 30.676 172.692 33.328C172.692 34.03 172.653 34.758 172.575 35.512H159.705C159.991 37.124 160.563 38.281 161.421 38.983C162.305 39.659 163.475 39.997 164.931 39.997C166.335 39.997 167.44 39.867 168.246 39.607C169.052 39.347 169.715 39.087 170.235 38.827L171.522 41.83C171.002 42.168 170.196 42.519 169.104 42.883C168.012 43.221 166.582 43.39 164.814 43.39ZM159.705 32.587H168.597C168.623 30.897 168.246 29.74 167.466 29.116C166.686 28.492 165.672 28.18 164.424 28.18C163.124 28.18 162.058 28.531 161.226 29.233C160.42 29.909 159.913 31.027 159.705 32.587ZM177.848 14.062H182.333V43H177.848V14.062Z" fill="#0F379A"/>
<path d="M27.501 44C25.8753 49.7589 20.335 53.9999 13.75 54C7.16506 53.9999 1.6257 49.7588 0 44H4.24316C5.71959 47.4394 9.30986 49.9999 13.75 50C18.1901 49.9999 21.7802 47.4394 23.2568 44H27.501ZM27.9854 40.5L27.9844 40.5693V40.4307C27.9845 40.4538 27.9854 40.4769 27.9854 40.5Z" fill="#0F379A"/>
</svg>
