<svg width="216" height="57" viewBox="0 0 216 57" fill="none" xmlns="http://www.w3.org/2000/svg">
<path d="M22.458 34.615C22.458 37.345 21.691 39.464 20.157 40.972C18.649 42.454 16.582 43.195 13.956 43.195C12.318 43.195 10.823 42.857 9.471 42.181C8.119 41.479 6.936 40.517 5.922 39.295L8.106 35.941C9.016 36.903 9.978 37.644 10.992 38.164C12.006 38.684 12.981 38.944 13.917 38.944C15.139 38.944 16.088 38.567 16.764 37.813C17.466 37.033 17.817 35.928 17.817 34.498V19.639H8.379V15.7H22.458V34.615ZM36.5769 43.39C34.7049 43.39 33.0539 42.974 31.6239 42.142C30.2199 41.31 29.1279 40.179 28.3479 38.749C27.5679 37.319 27.1779 35.733 27.1779 33.991C27.1779 32.275 27.5549 30.715 28.3089 29.311C29.0889 27.881 30.1809 26.75 31.5849 25.918C32.9889 25.06 34.6529 24.631 36.5769 24.631C38.5009 24.631 40.1649 25.06 41.5689 25.918C42.9729 26.75 44.0519 27.881 44.8059 29.311C45.5599 30.715 45.9369 32.275 45.9369 33.991C45.9369 35.733 45.5469 37.319 44.7669 38.749C44.0129 40.179 42.9339 41.31 41.5299 42.142C40.1259 42.974 38.4749 43.39 36.5769 43.39ZM36.6939 39.958C38.2539 39.958 39.4499 39.386 40.2819 38.242C41.1399 37.098 41.5689 35.707 41.5689 34.069C41.5689 32.951 41.3609 31.95 40.9449 31.066C40.5289 30.156 39.9309 29.428 39.1509 28.882C38.3969 28.336 37.4999 28.063 36.4599 28.063C35.4459 28.063 34.5749 28.336 33.8469 28.882C33.1189 29.428 32.5469 30.156 32.1309 31.066C31.7409 31.95 31.5459 32.951 31.5459 34.069C31.5459 35.161 31.7669 36.162 32.2089 37.072C32.6509 37.956 33.2489 38.658 34.0029 39.178C34.7829 39.698 35.6799 39.958 36.6939 39.958ZM56.246 36.448C56.246 37.566 56.441 38.333 56.831 38.749C57.221 39.139 57.767 39.334 58.469 39.334C58.937 39.334 59.418 39.256 59.912 39.1C60.432 38.944 60.991 38.71 61.589 38.398L62.72 41.635C61.914 42.129 61.082 42.519 60.224 42.805C59.366 43.065 58.495 43.195 57.611 43.195C56.571 43.195 55.609 43 54.725 42.61C53.841 42.194 53.126 41.544 52.58 40.66C52.06 39.776 51.8 38.632 51.8 37.228V17.377H56.246V36.448ZM48.875 23.032H62.369V26.23H48.875V23.032ZM74.2339 43.39C72.6479 43.39 71.1659 43.013 69.7879 42.259C68.4359 41.505 67.3439 40.426 66.5119 39.022C65.6799 37.618 65.2639 35.941 65.2639 33.991C65.2639 32.119 65.6149 30.481 66.3169 29.077C67.0449 27.673 68.0589 26.581 69.3589 25.801C70.6849 25.021 72.2579 24.631 74.0779 24.631C75.1699 24.631 76.1579 24.826 77.0419 25.216C77.9519 25.58 78.7059 26.035 79.3039 26.581C79.9279 27.101 80.3439 27.608 80.5519 28.102L80.6299 25.099H84.6469V43H80.6689L80.5909 39.841C80.3309 40.413 79.8889 40.972 79.2649 41.518C78.6669 42.064 77.9389 42.519 77.0809 42.883C76.2229 43.221 75.2739 43.39 74.2339 43.39ZM74.9359 39.88C75.8979 39.88 76.7689 39.659 77.5489 39.217C78.3549 38.749 78.9919 38.099 79.4599 37.267C79.9539 36.435 80.2009 35.447 80.2009 34.303V34.03C80.2009 32.86 79.9539 31.846 79.4599 30.988C78.9919 30.104 78.3549 29.428 77.5489 28.96C76.7689 28.466 75.8979 28.219 74.9359 28.219C73.1939 28.219 71.8809 28.778 70.9969 29.896C70.1389 31.014 69.7099 32.392 69.7099 34.03C69.7099 35.694 70.1389 37.085 70.9969 38.203C71.8809 39.321 73.1939 39.88 74.9359 39.88ZM91.13 15.7H95.732V27.673H110.201V15.7H114.803V43H110.201V31.573H95.732V43H91.13V15.7ZM129.507 43.39C127.635 43.39 125.984 42.974 124.554 42.142C123.15 41.31 122.058 40.179 121.278 38.749C120.498 37.319 120.108 35.733 120.108 33.991C120.108 32.275 120.485 30.715 121.239 29.311C122.019 27.881 123.111 26.75 124.515 25.918C125.919 25.06 127.583 24.631 129.507 24.631C131.431 24.631 133.095 25.06 134.499 25.918C135.903 26.75 136.982 27.881 137.736 29.311C138.49 30.715 138.867 32.275 138.867 33.991C138.867 35.733 138.477 37.319 137.697 38.749C136.943 40.179 135.864 41.31 134.46 42.142C133.056 42.974 131.405 43.39 129.507 43.39ZM129.624 39.958C131.184 39.958 132.38 39.386 133.212 38.242C134.07 37.098 134.499 35.707 134.499 34.069C134.499 32.951 134.291 31.95 133.875 31.066C133.459 30.156 132.861 29.428 132.081 28.882C131.327 28.336 130.43 28.063 129.39 28.063C128.376 28.063 127.505 28.336 126.777 28.882C126.049 29.428 125.477 30.156 125.061 31.066C124.671 31.95 124.476 32.951 124.476 34.069C124.476 35.161 124.697 36.162 125.139 37.072C125.581 37.956 126.179 38.658 126.933 39.178C127.713 39.698 128.61 39.958 129.624 39.958ZM149.176 36.448C149.176 37.566 149.371 38.333 149.761 38.749C150.151 39.139 150.697 39.334 151.399 39.334C151.867 39.334 152.348 39.256 152.842 39.1C153.362 38.944 153.921 38.71 154.519 38.398L155.65 41.635C154.844 42.129 154.012 42.519 153.154 42.805C152.296 43.065 151.425 43.195 150.541 43.195C149.501 43.195 148.539 43 147.655 42.61C146.771 42.194 146.056 41.544 145.51 40.66C144.99 39.776 144.73 38.632 144.73 37.228V17.377H149.176V36.448ZM141.805 23.032H155.299V26.23H141.805V23.032ZM167.71 43.39C165.474 43.39 163.654 42.961 162.25 42.103C160.846 41.219 159.819 40.062 159.169 38.632C158.519 37.202 158.194 35.681 158.194 34.069C158.194 32.119 158.584 30.442 159.364 29.038C160.17 27.634 161.275 26.555 162.679 25.801C164.083 25.021 165.669 24.631 167.437 24.631C170.271 24.631 172.338 25.424 173.638 27.01C174.938 28.57 175.588 30.676 175.588 33.328C175.588 34.03 175.549 34.758 175.471 35.512H162.601C162.887 37.124 163.459 38.281 164.317 38.983C165.201 39.659 166.371 39.997 167.827 39.997C169.231 39.997 170.336 39.867 171.142 39.607C171.948 39.347 172.611 39.087 173.131 38.827L174.418 41.83C173.898 42.168 173.092 42.519 172 42.883C170.908 43.221 169.478 43.39 167.71 43.39ZM162.601 32.587H171.493C171.519 30.897 171.142 29.74 170.362 29.116C169.582 28.492 168.568 28.18 167.32 28.18C166.02 28.18 164.954 28.531 164.122 29.233C163.316 29.909 162.809 31.027 162.601 32.587ZM180.744 14.062H185.229V43H180.744V14.062ZM203.868 27.322C202.958 26.776 201.957 26.347 200.865 26.035C199.799 25.697 198.811 25.528 197.901 25.528C197.017 25.528 196.289 25.697 195.717 26.035C195.145 26.373 194.859 26.932 194.859 27.712C194.859 28.362 195.119 28.882 195.639 29.272C196.185 29.636 196.874 29.948 197.706 30.208C198.538 30.468 199.422 30.741 200.358 31.027C201.294 31.313 202.178 31.69 203.01 32.158C203.868 32.6 204.557 33.211 205.077 33.991C205.597 34.771 205.857 35.798 205.857 37.072C205.857 38.476 205.48 39.633 204.726 40.543C203.998 41.427 203.023 42.09 201.801 42.532C200.605 42.948 199.305 43.156 197.901 43.156C196.393 43.156 194.885 42.909 193.377 42.415C191.869 41.921 190.595 41.206 189.555 40.27L191.154 37.228C192.064 38.034 193.169 38.671 194.469 39.139C195.769 39.581 196.978 39.802 198.096 39.802C198.746 39.802 199.318 39.724 199.812 39.568C200.332 39.386 200.735 39.126 201.021 38.788C201.333 38.45 201.489 38.008 201.489 37.462C201.489 36.734 201.229 36.162 200.709 35.746C200.189 35.33 199.513 34.992 198.681 34.732C197.849 34.446 196.965 34.173 196.029 33.913C195.093 33.627 194.209 33.263 193.377 32.821C192.571 32.379 191.908 31.781 191.388 31.027C190.868 30.273 190.608 29.272 190.608 28.024C190.608 26.62 190.972 25.489 191.7 24.631C192.428 23.747 193.364 23.11 194.508 22.72C195.678 22.304 196.926 22.096 198.252 22.096C199.552 22.096 200.852 22.278 202.152 22.642C203.452 23.006 204.57 23.513 205.506 24.163L203.868 27.322Z" fill="#0F379A"/>
<path d="M27.501 43.5693C25.8753 49.3283 20.335 53.5692 13.75 53.5693C7.16506 53.5692 1.6257 49.3281 0 43.5693H4.24316C5.71959 47.0088 9.30986 49.5692 13.75 49.5693C18.1901 49.5692 21.7802 47.0087 23.2568 43.5693H27.501ZM27.9854 40.0693L27.9844 40.1387V40C27.9845 40.0231 27.9854 40.0462 27.9854 40.0693Z" fill="#0F379A"/>
</svg>
